<svg viewBox="-2.4 -2.4 28.80 28.80" fill="none" xmlns="http://www.w3.org/2000/svg" transform="matrix(1, 0, 0, 1, 0, 0)rotate(0)"><g id="SVGRepo_bgCarrier" stroke-width="0"></g><g id="SVGRepo_tracerCarrier" stroke-linecap="round" stroke-linejoin="round" stroke="#CCCCCC" stroke-width="0.4800000000000001"></g><g id="SVGRepo_iconCarrier"> <path d="M21 11V13" stroke="#323232" stroke-width="1.32" stroke-linecap="round" stroke-linejoin="round"></path> <path d="M6.99994 13L5.99994 11" stroke="#323232" stroke-width="1.32" stroke-linecap="round" stroke-linejoin="round"></path> <path d="M10.9999 13L9.99994 11" stroke="#323232" stroke-width="1.32" stroke-linecap="round" stroke-linejoin="round"></path> <path d="M14.9999 13L13.9999 11" stroke="#323232" stroke-width="1.32" stroke-linecap="round" stroke-linejoin="round"></path> <path d="M3 12C3 10.1144 3 9.17157 3.58579 8.58579C4.17157 8 5.11438 8 7 8H10.5H14C15.8856 8 16.8284 8 17.4142 8.58579C18 9.17157 18 10.1144 18 12V12V12C18 13.8856 18 14.8284 17.4142 15.4142C16.8284 16 15.8856 16 14 16H10.5H7C5.11438 16 4.17157 16 3.58579 15.4142C3 14.8284 3 13.8856 3 12V12V12Z" stroke="#323232" stroke-width="1.32" stroke-linejoin="round"></path> </g></svg>